<?xml version="1.0" encoding="utf-8" standalone="no"?>
<!DOCTYPE svg PUBLIC "-//W3C//DTD SVG 1.1//EN"
  "http://www.w3.org/Graphics/SVG/1.1/DTD/svg11.dtd">
<!-- Created with matplotlib (https://matplotlib.org/) -->
<svg height="144pt" version="1.1" viewBox="0 0 1440 144" width="1440pt" xmlns="http://www.w3.org/2000/svg" xmlns:xlink="http://www.w3.org/1999/xlink">
 <defs>
  <style type="text/css">
*{stroke-linecap:butt;stroke-linejoin:round;}
  </style>
 </defs>
 <g id="figure_1">
  <g id="patch_1">
   <path d="M 0 144 
L 1440 144 
L 1440 0 
L 0 0 
z
" style="fill:#ffffff;"/>
  </g>
  <g id="axes_1">
   <g id="patch_2">
    <path d="M 399.803586 67.68 
C 399.803586 61.258574 398.390664 54.915107 395.665302 49.100719 
C 392.939939 43.286332 388.96831 38.142201 384.03286 34.034156 
C 379.097409 29.926111 373.317974 26.953898 367.105562 25.328889 
C 360.893151 23.70388 354.398607 23.465531 348.083793 24.630792 
L 356.027586 67.68 
L 399.803586 67.68 
z
" style="fill:#dbdb8d;"/>
   </g>
   <g id="patch_3">
    <path d="M 348.083793 24.630792 
C 337.833516 26.522257 328.588331 32.013892 322.02384 40.11039 
C 315.459349 48.206887 311.997638 58.387657 312.266109 68.807529 
L 356.027586 67.68 
L 348.083793 24.630792 
z
" style="fill:#8c564b;"/>
   </g>
   <g id="patch_4">
    <path d="M 312.266109 68.807529 
C 312.508204 78.203677 315.770189 87.276591 321.566537 94.675819 
C 327.362884 102.075047 335.390996 107.414312 344.455932 109.898894 
L 356.027586 67.68 
L 312.266109 68.807529 
z
" style="fill:#c4d627;"/>
   </g>
   <g id="patch_5">
    <path d="M 344.455932 109.898894 
C 350.77321 111.630378 357.399301 111.922091 363.8443 110.752464 
C 370.289299 109.582837 376.390351 106.981425 381.69637 103.140566 
L 356.027586 67.68 
L 344.455932 109.898894 
z
" style="fill:#b4821f;"/>
   </g>
   <g id="patch_6">
    <path d="M 381.69637 103.140566 
C 386.767928 99.469425 390.993397 94.752647 394.08683 89.309428 
C 397.180263 83.866208 399.07027 77.822165 399.62895 71.586313 
L 356.027586 67.68 
L 381.69637 103.140566 
z
" style="fill:#9edae5;"/>
   </g>
   <g id="patch_7">
    <path d="M 399.62895 71.586313 
C 399.659678 71.243333 399.686358 70.900003 399.708984 70.556393 
C 399.731611 70.212784 399.750182 69.86892 399.764694 69.524872 
L 356.027586 67.68 
L 399.62895 71.586313 
z
" style="fill:#aa40fc;"/>
   </g>
   <g id="patch_8">
    <path d="M 399.764694 69.524872 
C 399.773413 69.31818 399.780666 69.111429 399.786453 68.904635 
C 399.792241 68.69784 399.796562 68.491007 399.799417 68.284152 
L 356.027586 67.68 
L 399.764694 69.524872 
z
" style="fill:#e377c2;"/>
   </g>
   <g id="patch_9">
    <path d="M 399.799417 68.284152 
C 399.800575 68.200288 399.801491 68.116422 399.802167 68.032553 
C 399.802842 67.948684 399.803276 67.864814 399.80347 67.780943 
L 356.027586 67.68 
L 399.799417 68.284152 
z
" style="fill:#279e68;"/>
   </g>
   <g id="patch_10">
    <path d="M 399.80347 67.780943 
C 399.803484 67.774649 399.803497 67.768356 399.803509 67.762062 
C 399.803521 67.755769 399.803532 67.749475 399.803541 67.743182 
L 356.027586 67.68 
L 399.80347 67.780943 
z
" style="fill:#b5bd61;"/>
   </g>
   <g id="patch_11">
    <path d="M 399.803541 67.743182 
C 399.803549 67.737372 399.803556 67.731563 399.803562 67.725754 
C 399.803568 67.719944 399.803573 67.714135 399.803577 67.708325 
L 356.027586 67.68 
L 399.803541 67.743182 
z
" style="fill:#750b0b;"/>
   </g>
   <g id="patch_12">
    <path d="M 399.803577 67.708325 
C 399.80358 67.703605 399.803582 67.698885 399.803584 67.694165 
C 399.803585 67.689445 399.803586 67.684725 399.803586 67.680004 
L 356.027586 67.68 
L 399.803577 67.708325 
z
" style="fill:#b41f1f;"/>
   </g>
   <g id="patch_13">
    <path d="M 399.803586 67.680004 
C 399.803586 67.680004 399.803586 67.680004 399.803586 67.680004 
L 356.027586 67.68 
L 399.803586 67.680004 
z
" style="fill:#1f77b4;"/>
   </g>
   <g id="patch_14">
    <path d="M 399.803586 67.680004 
C 399.803586 67.680004 399.803586 67.680004 399.803586 67.680004 
L 356.027586 67.68 
L 399.803586 67.680004 
z
" style="fill:#0b7510;"/>
   </g>
   <g id="matplotlib.axis_1"/>
   <g id="matplotlib.axis_2"/>
   <g id="text_1">
    <!-- Cluster 6 -->
    <defs>
     <path d="M 58.796875 25.09375 
L 68.265625 22.703125 
Q 65.28125 11.03125 57.546875 4.90625 
Q 49.8125 -1.21875 38.625 -1.21875 
Q 27.046875 -1.21875 19.796875 3.484375 
Q 12.546875 8.203125 8.765625 17.140625 
Q 4.984375 26.078125 4.984375 36.328125 
Q 4.984375 47.515625 9.25 55.828125 
Q 13.53125 64.15625 21.40625 68.46875 
Q 29.296875 72.796875 38.765625 72.796875 
Q 49.515625 72.796875 56.828125 67.328125 
Q 64.15625 61.859375 67.046875 51.953125 
L 57.71875 49.75 
Q 55.21875 57.5625 50.484375 61.125 
Q 45.75 64.703125 38.578125 64.703125 
Q 30.328125 64.703125 24.78125 60.734375 
Q 19.234375 56.78125 16.984375 50.109375 
Q 14.75 43.453125 14.75 36.375 
Q 14.75 27.25 17.40625 20.4375 
Q 20.0625 13.625 25.671875 10.25 
Q 31.296875 6.890625 37.84375 6.890625 
Q 45.796875 6.890625 51.3125 11.46875 
Q 56.84375 16.0625 58.796875 25.09375 
z
" id="ArialMT-67"/>
     <path d="M 6.390625 0 
L 6.390625 71.578125 
L 15.1875 71.578125 
L 15.1875 0 
z
" id="ArialMT-108"/>
     <path d="M 40.578125 0 
L 40.578125 7.625 
Q 34.515625 -1.171875 24.125 -1.171875 
Q 19.53125 -1.171875 15.546875 0.578125 
Q 11.578125 2.34375 9.640625 5 
Q 7.71875 7.671875 6.9375 11.53125 
Q 6.390625 14.109375 6.390625 19.734375 
L 6.390625 51.859375 
L 15.1875 51.859375 
L 15.1875 23.09375 
Q 15.1875 16.21875 15.71875 13.8125 
Q 16.546875 10.359375 19.234375 8.375 
Q 21.921875 6.390625 25.875 6.390625 
Q 29.828125 6.390625 33.296875 8.421875 
Q 36.765625 10.453125 38.203125 13.9375 
Q 39.65625 17.4375 39.65625 24.078125 
L 39.65625 51.859375 
L 48.4375 51.859375 
L 48.4375 0 
z
" id="ArialMT-117"/>
     <path d="M 3.078125 15.484375 
L 11.765625 16.84375 
Q 12.5 11.625 15.84375 8.84375 
Q 19.1875 6.0625 25.203125 6.0625 
Q 31.25 6.0625 34.171875 8.515625 
Q 37.109375 10.984375 37.109375 14.3125 
Q 37.109375 17.28125 34.515625 19 
Q 32.71875 20.171875 25.53125 21.96875 
Q 15.875 24.421875 12.140625 26.203125 
Q 8.40625 27.984375 6.46875 31.125 
Q 4.546875 34.28125 4.546875 38.09375 
Q 4.546875 41.546875 6.125 44.5 
Q 7.71875 47.46875 10.453125 49.421875 
Q 12.5 50.921875 16.03125 51.96875 
Q 19.578125 53.03125 23.640625 53.03125 
Q 29.734375 53.03125 34.34375 51.265625 
Q 38.96875 49.515625 41.15625 46.5 
Q 43.359375 43.5 44.1875 38.484375 
L 35.59375 37.3125 
Q 35.015625 41.3125 32.203125 43.546875 
Q 29.390625 45.796875 24.265625 45.796875 
Q 18.21875 45.796875 15.625 43.796875 
Q 13.03125 41.796875 13.03125 39.109375 
Q 13.03125 37.40625 14.109375 36.03125 
Q 15.1875 34.625 17.484375 33.6875 
Q 18.796875 33.203125 25.25 31.453125 
Q 34.578125 28.953125 38.25 27.359375 
Q 41.9375 25.78125 44.03125 22.75 
Q 46.140625 19.734375 46.140625 15.234375 
Q 46.140625 10.84375 43.578125 6.953125 
Q 41.015625 3.078125 36.171875 0.953125 
Q 31.34375 -1.171875 25.25 -1.171875 
Q 15.140625 -1.171875 9.84375 3.03125 
Q 4.546875 7.234375 3.078125 15.484375 
z
" id="ArialMT-115"/>
     <path d="M 25.78125 7.859375 
L 27.046875 0.09375 
Q 23.34375 -0.6875 20.40625 -0.6875 
Q 15.625 -0.6875 12.984375 0.828125 
Q 10.359375 2.34375 9.28125 4.8125 
Q 8.203125 7.28125 8.203125 15.1875 
L 8.203125 45.015625 
L 1.765625 45.015625 
L 1.765625 51.859375 
L 8.203125 51.859375 
L 8.203125 64.703125 
L 16.9375 69.96875 
L 16.9375 51.859375 
L 25.78125 51.859375 
L 25.78125 45.015625 
L 16.9375 45.015625 
L 16.9375 14.703125 
Q 16.9375 10.9375 17.40625 9.859375 
Q 17.875 8.796875 18.921875 8.15625 
Q 19.96875 7.515625 21.921875 7.515625 
Q 23.390625 7.515625 25.78125 7.859375 
z
" id="ArialMT-116"/>
     <path d="M 42.09375 16.703125 
L 51.171875 15.578125 
Q 49.03125 7.625 43.21875 3.21875 
Q 37.40625 -1.171875 28.375 -1.171875 
Q 17 -1.171875 10.328125 5.828125 
Q 3.65625 12.84375 3.65625 25.484375 
Q 3.65625 38.578125 10.390625 45.796875 
Q 17.140625 53.03125 27.875 53.03125 
Q 38.28125 53.03125 44.875 45.953125 
Q 51.46875 38.875 51.46875 26.03125 
Q 51.46875 25.25 51.421875 23.6875 
L 12.75 23.6875 
Q 13.234375 15.140625 17.578125 10.59375 
Q 21.921875 6.0625 28.421875 6.0625 
Q 33.25 6.0625 36.671875 8.59375 
Q 40.09375 11.140625 42.09375 16.703125 
z
M 13.234375 30.90625 
L 42.1875 30.90625 
Q 41.609375 37.453125 38.875 40.71875 
Q 34.671875 45.796875 27.984375 45.796875 
Q 21.921875 45.796875 17.796875 41.75 
Q 13.671875 37.703125 13.234375 30.90625 
z
" id="ArialMT-101"/>
     <path d="M 6.5 0 
L 6.5 51.859375 
L 14.40625 51.859375 
L 14.40625 44 
Q 17.4375 49.515625 20 51.265625 
Q 22.5625 53.03125 25.640625 53.03125 
Q 30.078125 53.03125 34.671875 50.203125 
L 31.640625 42.046875 
Q 28.421875 43.953125 25.203125 43.953125 
Q 22.3125 43.953125 20.015625 42.21875 
Q 17.71875 40.484375 16.75 37.40625 
Q 15.28125 32.71875 15.28125 27.15625 
L 15.28125 0 
z
" id="ArialMT-114"/>
     <path id="ArialMT-32"/>
     <path d="M 49.75 54.046875 
L 41.015625 53.375 
Q 39.84375 58.546875 37.703125 60.890625 
Q 34.125 64.65625 28.90625 64.65625 
Q 24.703125 64.65625 21.53125 62.3125 
Q 17.390625 59.28125 14.984375 53.46875 
Q 12.59375 47.65625 12.5 36.921875 
Q 15.671875 41.75 20.265625 44.09375 
Q 24.859375 46.4375 29.890625 46.4375 
Q 38.671875 46.4375 44.84375 39.96875 
Q 51.03125 33.5 51.03125 23.25 
Q 51.03125 16.5 48.125 10.71875 
Q 45.21875 4.9375 40.140625 1.859375 
Q 35.0625 -1.21875 28.609375 -1.21875 
Q 17.625 -1.21875 10.6875 6.859375 
Q 3.765625 14.9375 3.765625 33.5 
Q 3.765625 54.25 11.421875 63.671875 
Q 18.109375 71.875 29.4375 71.875 
Q 37.890625 71.875 43.28125 67.140625 
Q 48.6875 62.40625 49.75 54.046875 
z
M 13.875 23.1875 
Q 13.875 18.65625 15.796875 14.5 
Q 17.71875 10.359375 21.1875 8.171875 
Q 24.65625 6 28.46875 6 
Q 34.03125 6 38.03125 10.484375 
Q 42.046875 14.984375 42.046875 22.703125 
Q 42.046875 30.125 38.078125 34.390625 
Q 34.125 38.671875 28.125 38.671875 
Q 22.171875 38.671875 18.015625 34.390625 
Q 13.875 30.125 13.875 23.1875 
z
" id="ArialMT-54"/>
    </defs>
    <g transform="translate(328.018836 6.96)scale(0.14 -0.14)">
     <use xlink:href="#ArialMT-67"/>
     <use x="72.216797" xlink:href="#ArialMT-108"/>
     <use x="94.433594" xlink:href="#ArialMT-117"/>
     <use x="150.048828" xlink:href="#ArialMT-115"/>
     <use x="200.048828" xlink:href="#ArialMT-116"/>
     <use x="227.832031" xlink:href="#ArialMT-101"/>
     <use x="283.447266" xlink:href="#ArialMT-114"/>
     <use x="316.748047" xlink:href="#ArialMT-32"/>
     <use x="344.53125" xlink:href="#ArialMT-54"/>
    </g>
   </g>
  </g>
  <g id="axes_2">
   <g id="patch_15">
    <path d="M 632.189793 67.68 
C 632.189793 59.38947 629.834636 51.267053 625.3997 44.262467 
C 620.964764 37.25788 614.62991 31.655199 607.135843 28.109518 
L 588.413793 67.68 
L 632.189793 67.68 
z
" style="fill:#dbdb8d;"/>
   </g>
   <g id="patch_16">
    <path d="M 607.135843 28.109518 
C 600.376885 24.911641 592.909973 23.498188 585.449836 24.004456 
C 577.9897 24.510724 570.782212 26.920026 564.51727 31.001746 
L 588.413793 67.68 
L 607.135843 28.109518 
z
" style="fill:#8c564b;"/>
   </g>
   <g id="patch_17">
    <path d="M 564.51727 31.001746 
C 558.46546 34.944605 553.482524 40.32465 550.014357 46.66045 
C 546.54619 52.996249 544.699422 60.093008 544.639309 67.315675 
L 588.413793 67.68 
L 564.51727 31.001746 
z
" style="fill:#c4d627;"/>
   </g>
   <g id="patch_18">
    <path d="M 544.639309 67.315675 
C 544.584293 73.926044 546.027328 80.463809 548.859792 86.436844 
C 551.692257 92.40988 555.84125 97.664456 560.99446 101.80504 
L 588.413793 67.68 
L 544.639309 67.315675 
z
" style="fill:#750b0b;"/>
   </g>
   <g id="patch_19">
    <path d="M 560.99446 101.80504 
C 565.708127 105.592452 571.155797 108.362464 576.993139 109.939991 
C 582.830481 111.517518 588.931859 111.868606 594.911622 110.971066 
L 588.413793 67.68 
L 560.99446 101.80504 
z
" style="fill:#aa40fc;"/>
   </g>
   <g id="patch_20">
    <path d="M 594.911622 110.971066 
C 599.566205 110.27243 604.077798 108.827665 608.272357 106.692506 
C 612.466916 104.557346 616.289803 101.759605 619.593541 98.407211 
L 588.413793 67.68 
L 594.911622 110.971066 
z
" style="fill:#9edae5;"/>
   </g>
   <g id="patch_21">
    <path d="M 619.593541 98.407211 
C 621.20287 96.774181 622.68142 95.017239 624.015541 93.152608 
C 625.349661 91.287976 626.535233 89.321412 627.56131 87.271072 
L 588.413793 67.68 
L 619.593541 98.407211 
z
" style="fill:#b41f1f;"/>
   </g>
   <g id="patch_22">
    <path d="M 627.56131 87.271072 
C 628.082839 86.228935 628.562547 85.166389 628.999286 84.085972 
C 629.436026 83.005555 629.829449 81.90813 630.178615 80.796319 
L 588.413793 67.68 
L 627.56131 87.271072 
z
" style="fill:#279e68;"/>
   </g>
   <g id="patch_23">
    <path d="M 630.178615 80.796319 
C 630.475692 79.850369 630.740546 78.894599 630.972718 77.930663 
C 631.20489 76.966728 631.404245 75.995182 631.57044 75.017708 
L 588.413793 67.68 
L 630.178615 80.796319 
z
" style="fill:#b4821f;"/>
   </g>
   <g id="patch_24">
    <path d="M 631.57044 75.017708 
C 631.683552 74.352447 631.781265 73.684659 631.863502 73.014881 
C 631.94574 72.345102 632.012479 71.673511 632.063667 71.000647 
L 588.413793 67.68 
L 631.57044 75.017708 
z
" style="fill:#e377c2;"/>
   </g>
   <g id="patch_25">
    <path d="M 632.063667 71.000647 
C 632.10569 70.448253 632.137223 69.895112 632.15825 69.341522 
C 632.179277 68.787932 632.189793 68.233992 632.189793 67.680003 
L 588.413793 67.68 
L 632.063667 71.000647 
z
" style="fill:#b5bd61;"/>
   </g>
   <g id="patch_26">
    <path d="M 632.189793 67.680003 
C 632.189793 67.680003 632.189793 67.680003 632.189793 67.680003 
L 588.413793 67.68 
L 632.189793 67.680003 
z
" style="fill:#1f77b4;"/>
   </g>
   <g id="patch_27">
    <path d="M 632.189793 67.680003 
C 632.189793 67.680003 632.189793 67.680003 632.189793 67.680003 
L 588.413793 67.68 
L 632.189793 67.680003 
z
" style="fill:#0b7510;"/>
   </g>
   <g id="matplotlib.axis_3"/>
   <g id="matplotlib.axis_4"/>
   <g id="text_2">
    <!-- Cluster 0 -->
    <defs>
     <path d="M 4.15625 35.296875 
Q 4.15625 48 6.765625 55.734375 
Q 9.375 63.484375 14.515625 67.671875 
Q 19.671875 71.875 27.484375 71.875 
Q 33.25 71.875 37.59375 69.546875 
Q 41.9375 67.234375 44.765625 62.859375 
Q 47.609375 58.5 49.21875 52.21875 
Q 50.828125 45.953125 50.828125 35.296875 
Q 50.828125 22.703125 48.234375 14.96875 
Q 45.65625 7.234375 40.5 3 
Q 35.359375 -1.21875 27.484375 -1.21875 
Q 17.140625 -1.21875 11.234375 6.203125 
Q 4.15625 15.140625 4.15625 35.296875 
z
M 13.1875 35.296875 
Q 13.1875 17.671875 17.3125 11.828125 
Q 21.4375 6 27.484375 6 
Q 33.546875 6 37.671875 11.859375 
Q 41.796875 17.71875 41.796875 35.296875 
Q 41.796875 52.984375 37.671875 58.78125 
Q 33.546875 64.59375 27.390625 64.59375 
Q 21.34375 64.59375 17.71875 59.46875 
Q 13.1875 52.9375 13.1875 35.296875 
z
" id="ArialMT-48"/>
    </defs>
    <g transform="translate(560.405043 6.96)scale(0.14 -0.14)">
     <use xlink:href="#ArialMT-67"/>
     <use x="72.216797" xlink:href="#ArialMT-108"/>
     <use x="94.433594" xlink:href="#ArialMT-117"/>
     <use x="150.048828" xlink:href="#ArialMT-115"/>
     <use x="200.048828" xlink:href="#ArialMT-116"/>
     <use x="227.832031" xlink:href="#ArialMT-101"/>
     <use x="283.447266" xlink:href="#ArialMT-114"/>
     <use x="316.748047" xlink:href="#ArialMT-32"/>
     <use x="344.53125" xlink:href="#ArialMT-48"/>
    </g>
   </g>
  </g>
  <g id="axes_3">
   <g id="patch_28">
    <path d="M 864.576 67.68 
C 864.576 61.905249 863.433328 56.187163 861.213964 50.855918 
C 858.994599 45.524673 855.742099 40.684896 851.644269 36.616046 
C 847.546439 32.547196 842.6837 29.329125 837.336839 27.147653 
C 831.989977 24.966181 826.263926 23.864119 820.48932 23.905102 
L 820.8 67.68 
L 864.576 67.68 
z
" style="fill:#8c564b;"/>
   </g>
   <g id="patch_29">
    <path d="M 820.48932 23.905102 
C 810.022478 23.979388 799.921633 27.805293 792.032062 34.683881 
C 784.14249 41.562469 778.975781 51.047706 777.475816 61.40678 
L 820.8 67.68 
L 820.48932 23.905102 
z
" style="fill:#dbdb8d;"/>
   </g>
   <g id="patch_30">
    <path d="M 777.475816 61.40678 
C 776.736435 66.513102 776.905613 71.710162 777.975526 76.757586 
C 779.045438 81.80501 780.999331 86.623761 783.746832 90.990962 
L 820.8 67.68 
L 777.475816 61.40678 
z
" style="fill:#9edae5;"/>
   </g>
   <g id="patch_31">
    <path d="M 783.746832 90.990962 
C 786.356068 95.138386 789.643226 98.818446 793.471003 101.877428 
C 797.298779 104.936409 801.613128 107.331121 806.233841 108.961536 
L 820.8 67.68 
L 783.746832 90.990962 
z
" style="fill:#b4821f;"/>
   </g>
   <g id="patch_32">
    <path d="M 806.233841 108.961536 
C 810.112816 110.330229 814.165413 111.145391 818.271912 111.38294 
C 822.378411 111.620489 826.497972 111.278063 830.508895 110.365777 
L 820.8 67.68 
L 806.233841 108.961536 
z
" style="fill:#b41f1f;"/>
   </g>
   <g id="patch_33">
    <path d="M 830.508895 110.365777 
C 834.50171 109.45761 838.347425 107.993687 841.933445 106.016871 
C 845.519465 104.040055 848.810447 101.569827 851.710039 98.678511 
L 820.8 67.68 
L 830.508895 110.365777 
z
" style="fill:#1f77b4;"/>
   </g>
   <g id="patch_34">
    <path d="M 851.710039 98.678511 
C 852.85406 97.537755 853.934054 96.334541 854.945063 95.074394 
C 855.956072 93.814247 856.896547 92.499098 857.762169 91.134983 
L 820.8 67.68 
L 851.710039 98.678511 
z
" style="fill:#e377c2;"/>
   </g>
   <g id="patch_35">
    <path d="M 857.762169 91.134983 
C 858.601919 89.81164 859.369995 88.444153 860.063078 87.038431 
C 860.756161 85.632709 861.373252 84.190779 861.911683 82.718872 
L 820.8 67.68 
L 857.762169 91.134983 
z
" style="fill:#c4d627;"/>
   </g>
   <g id="patch_36">
    <path d="M 861.911683 82.718872 
C 862.305022 81.643604 862.656025 80.553318 862.963881 79.450529 
C 863.271737 78.347741 863.536209 77.233299 863.756688 76.109774 
L 820.8 67.68 
L 861.911683 82.718872 
z
" style="fill:#aa40fc;"/>
   </g>
   <g id="patch_37">
    <path d="M 863.756688 76.109774 
C 863.854142 75.613167 863.942977 75.114907 864.023152 74.61522 
C 864.103328 74.115532 864.174833 73.614492 864.237634 73.112325 
L 820.8 67.68 
L 863.756688 76.109774 
z
" style="fill:#750b0b;"/>
   </g>
   <g id="patch_38">
    <path d="M 864.237634 73.112325 
C 864.292341 72.674874 864.340438 72.236622 864.381906 71.797719 
C 864.423375 71.358815 864.458211 70.91931 864.486403 70.479354 
L 820.8 67.68 
L 864.237634 73.112325 
z
" style="fill:#b5bd61;"/>
   </g>
   <g id="patch_39">
    <path d="M 864.486403 70.479354 
C 864.501422 70.244961 864.514555 70.01045 864.5258 69.775845 
C 864.537045 69.54124 864.546402 69.306548 864.553869 69.071793 
L 820.8 67.68 
L 864.486403 70.479354 
z
" style="fill:#279e68;"/>
   </g>
   <g id="patch_40">
    <path d="M 864.553869 69.071793 
C 864.561246 68.839904 864.566778 68.607961 864.570467 68.375984 
C 864.574156 68.144008 864.576 67.912006 864.576 67.68 
L 820.8 67.68 
L 864.553869 69.071793 
z
" style="fill:#0b7510;"/>
   </g>
   <g id="matplotlib.axis_5"/>
   <g id="matplotlib.axis_6"/>
   <g id="text_3">
    <!-- Cluster 11 -->
    <defs>
     <path d="M 37.25 0 
L 28.46875 0 
L 28.46875 56 
Q 25.296875 52.984375 20.140625 49.953125 
Q 14.984375 46.921875 10.890625 45.40625 
L 10.890625 53.90625 
Q 18.265625 57.375 23.78125 62.296875 
Q 29.296875 67.234375 31.59375 71.875 
L 37.25 71.875 
z
" id="ArialMT-49"/>
    </defs>
    <g transform="translate(788.90625 6.96)scale(0.14 -0.14)">
     <use xlink:href="#ArialMT-67"/>
     <use x="72.216797" xlink:href="#ArialMT-108"/>
     <use x="94.433594" xlink:href="#ArialMT-117"/>
     <use x="150.048828" xlink:href="#ArialMT-115"/>
     <use x="200.048828" xlink:href="#ArialMT-116"/>
     <use x="227.832031" xlink:href="#ArialMT-101"/>
     <use x="283.447266" xlink:href="#ArialMT-114"/>
     <use x="316.748047" xlink:href="#ArialMT-32"/>
     <use x="344.53125" xlink:href="#ArialMT-49"/>
     <use x="400.037109" xlink:href="#ArialMT-49"/>
    </g>
   </g>
  </g>
  <g id="axes_4">
   <g id="patch_41">
    <path d="M 1096.962207 67.68 
C 1096.962207 63.348424 1096.319302 59.040737 1095.054533 54.897923 
C 1093.789763 50.75511 1091.917081 46.822864 1089.497775 43.229884 
C 1087.078469 39.636903 1084.139225 36.422819 1080.77624 33.692822 
C 1077.413255 30.962826 1073.663623 28.74703 1069.650064 27.117954 
C 1065.636504 25.488878 1061.403287 24.46449 1057.08896 24.078318 
C 1052.774633 23.692146 1048.426783 23.948448 1044.187708 24.838838 
C 1039.948633 25.729227 1035.865091 27.243882 1032.07073 29.333229 
C 1028.276369 31.422577 1024.813041 34.063572 1021.794097 37.169779 
C 1018.775152 40.275986 1016.233889 43.813142 1014.253479 47.665483 
C 1012.27307 51.517823 1010.875358 55.642856 1010.10609 59.905575 
C 1009.336821 64.168294 1009.20448 68.521682 1009.713398 72.823257 
C 1010.222317 77.124832 1011.366881 81.327149 1013.109631 85.292672 
C 1014.85238 89.258194 1017.174094 92.943183 1019.998784 96.227034 
C 1022.823474 99.510884 1026.119985 102.357375 1029.780426 104.673345 
C 1033.440867 106.989316 1037.424865 108.74922 1041.602027 109.895459 
C 1045.779189 111.041697 1050.103442 111.561628 1054.43326 111.438234 
L 1053.186207 67.68 
L 1096.962207 67.68 
z
" style="fill:#c4d627;"/>
   </g>
   <g id="patch_42">
    <path d="M 1054.43326 111.438234 
C 1064.640374 111.147344 1074.430881 107.294036 1082.098184 100.549982 
C 1089.765488 93.805929 1094.836609 84.587158 1096.427594 74.500605 
L 1053.186207 67.68 
L 1054.43326 111.438234 
z
" style="fill:#8c564b;"/>
   </g>
   <g id="patch_43">
    <path d="M 1096.427594 74.500605 
C 1096.495671 74.069004 1096.557284 73.636407 1096.612409 73.202962 
C 1096.667535 72.769516 1096.716169 72.335269 1096.758293 71.900367 
L 1053.186207 67.68 
L 1096.427594 74.500605 
z
" style="fill:#b4821f;"/>
   </g>
   <g id="patch_44">
    <path d="M 1096.758293 71.900367 
C 1096.79817 71.488667 1096.83221 71.076422 1096.860403 70.663757 
C 1096.888595 70.251092 1096.910938 69.838048 1096.927423 69.42475 
L 1053.186207 67.68 
L 1096.758293 71.900367 
z
" style="fill:#9edae5;"/>
   </g>
   <g id="patch_45">
    <path d="M 1096.927423 69.42475 
C 1096.936417 69.199287 1096.943667 68.973759 1096.949172 68.748185 
C 1096.954678 68.52261 1096.95844 68.296997 1096.960457 68.071364 
L 1053.186207 67.68 
L 1096.927423 69.42475 
z
" style="fill:#e377c2;"/>
   </g>
   <g id="patch_46">
    <path d="M 1096.960457 68.071364 
C 1096.960746 68.039061 1096.960999 68.006757 1096.961217 67.974453 
C 1096.961434 67.94215 1096.961615 67.909846 1096.961761 67.877541 
L 1053.186207 67.68 
L 1096.960457 68.071364 
z
" style="fill:#b41f1f;"/>
   </g>
   <g id="patch_47">
    <path d="M 1096.961761 67.877541 
C 1096.961884 67.850322 1096.961981 67.823102 1096.962054 67.795883 
C 1096.962126 67.768663 1096.962172 67.741443 1096.962194 67.714224 
L 1053.186207 67.68 
L 1096.961761 67.877541 
z
" style="fill:#279e68;"/>
   </g>
   <g id="patch_48">
    <path d="M 1096.962194 67.714224 
C 1096.962198 67.70852 1096.962201 67.702816 1096.962204 67.697112 
C 1096.962206 67.691408 1096.962207 67.685704 1096.962207 67.68 
L 1053.186207 67.68 
L 1096.962194 67.714224 
z
" style="fill:#dbdb8d;"/>
   </g>
   <g id="patch_49">
    <path d="M 1096.962207 67.68 
C 1096.962207 67.68 1096.962207 67.68 1096.962207 67.68 
L 1053.186207 67.68 
L 1096.962207 67.68 
z
" style="fill:#1f77b4;"/>
   </g>
   <g id="patch_50">
    <path d="M 1096.962207 67.68 
C 1096.962207 67.68 1096.962207 67.68 1096.962207 67.68 
L 1053.186207 67.68 
L 1096.962207 67.68 
z
" style="fill:#aa40fc;"/>
   </g>
   <g id="patch_51">
    <path d="M 1096.962207 67.68 
C 1096.962207 67.68 1096.962207 67.68 1096.962207 67.68 
L 1053.186207 67.68 
L 1096.962207 67.68 
z
" style="fill:#b5bd61;"/>
   </g>
   <g id="patch_52">
    <path d="M 1096.962207 67.68 
C 1096.962207 67.68 1096.962207 67.68 1096.962207 67.68 
L 1053.186207 67.68 
L 1096.962207 67.68 
z
" style="fill:#0b7510;"/>
   </g>
   <g id="patch_53">
    <path d="M 1096.962207 67.68 
C 1096.962207 67.68 1096.962207 67.68 1096.962207 67.68 
L 1053.186207 67.68 
L 1096.962207 67.68 
z
" style="fill:#750b0b;"/>
   </g>
   <g id="matplotlib.axis_7"/>
   <g id="matplotlib.axis_8"/>
   <g id="text_4">
    <!-- Cluster 10 -->
    <g transform="translate(1021.284801 6.96)scale(0.14 -0.14)">
     <use xlink:href="#ArialMT-67"/>
     <use x="72.216797" xlink:href="#ArialMT-108"/>
     <use x="94.433594" xlink:href="#ArialMT-117"/>
     <use x="150.048828" xlink:href="#ArialMT-115"/>
     <use x="200.048828" xlink:href="#ArialMT-116"/>
     <use x="227.832031" xlink:href="#ArialMT-101"/>
     <use x="283.447266" xlink:href="#ArialMT-114"/>
     <use x="316.748047" xlink:href="#ArialMT-32"/>
     <use x="344.53125" xlink:href="#ArialMT-49"/>
     <use x="400.146484" xlink:href="#ArialMT-48"/>
    </g>
   </g>
  </g>
  <g id="axes_5">
   <g id="patch_54">
    <path d="M 1329.348414 67.68 
C 1329.348414 61.951464 1328.223958 56.278242 1326.038957 50.982783 
C 1323.853956 45.687323 1320.650605 40.87189 1316.610975 36.810178 
C 1312.571344 32.748466 1307.773444 29.518913 1302.489974 27.305078 
C 1297.206504 25.091243 1291.539496 23.935878 1285.811046 23.90465 
C 1280.082595 23.873423 1274.403328 24.966936 1269.096036 27.123038 
C 1263.788744 29.27914 1258.95592 32.456193 1254.872248 36.473623 
C 1250.788575 40.491052 1247.532916 45.271275 1245.290313 50.542599 
C 1243.047709 55.813922 1241.861469 61.474548 1241.799015 67.202743 
C 1241.736562 72.930939 1242.7991 78.616083 1244.926239 83.935049 
C 1247.053377 89.254015 1250.204038 94.104086 1254.199147 98.209597 
C 1258.194256 102.315109 1262.956661 105.596778 1268.215681 107.868083 
C 1273.474701 110.139388 1279.128777 111.356468 1284.856546 111.450146 
C 1290.584316 111.543825 1296.275168 110.512293 1301.605651 108.414181 
C 1306.936133 106.316069 1311.803307 103.191893 1315.930536 99.219224 
C 1320.057764 95.246554 1323.365345 90.502109 1325.665285 85.255548 
C 1327.965224 80.008987 1329.213107 74.361631 1329.338007 68.634457 
L 1285.572414 67.68 
L 1329.348414 67.68 
z
" style="fill:#9edae5;"/>
   </g>
   <g id="patch_55">
    <path d="M 1329.338007 68.634457 
C 1329.340803 68.50629 1329.343035 68.378111 1329.344704 68.249924 
C 1329.346373 68.121738 1329.347479 67.993544 1329.348021 67.865348 
L 1285.572414 67.68 
L 1329.338007 68.634457 
z
" style="fill:#c4d627;"/>
   </g>
   <g id="patch_56">
    <path d="M 1329.348021 67.865348 
C 1329.348152 67.834457 1329.34825 67.803566 1329.348316 67.772676 
C 1329.348381 67.741785 1329.348414 67.710894 1329.348414 67.680003 
L 1285.572414 67.68 
L 1329.348021 67.865348 
z
" style="fill:#b4821f;"/>
   </g>
   <g id="patch_57">
    <path d="M 1329.348414 67.680003 
C 1329.348414 67.680003 1329.348414 67.680003 1329.348414 67.680003 
L 1285.572414 67.68 
L 1329.348414 67.680003 
z
" style="fill:#1f77b4;"/>
   </g>
   <g id="patch_58">
    <path d="M 1329.348414 67.680003 
C 1329.348414 67.680003 1329.348414 67.680003 1329.348414 67.680003 
L 1285.572414 67.68 
L 1329.348414 67.680003 
z
" style="fill:#b41f1f;"/>
   </g>
   <g id="patch_59">
    <path d="M 1329.348414 67.680003 
C 1329.348414 67.680003 1329.348414 67.680003 1329.348414 67.680003 
L 1285.572414 67.68 
L 1329.348414 67.680003 
z
" style="fill:#279e68;"/>
   </g>
   <g id="patch_60">
    <path d="M 1329.348414 67.680003 
C 1329.348414 67.680003 1329.348414 67.680003 1329.348414 67.680003 
L 1285.572414 67.68 
L 1329.348414 67.680003 
z
" style="fill:#aa40fc;"/>
   </g>
   <g id="patch_61">
    <path d="M 1329.348414 67.680003 
C 1329.348414 67.680003 1329.348414 67.680003 1329.348414 67.680003 
L 1285.572414 67.68 
L 1329.348414 67.680003 
z
" style="fill:#8c564b;"/>
   </g>
   <g id="patch_62">
    <path d="M 1329.348414 67.680003 
C 1329.348414 67.680003 1329.348414 67.680003 1329.348414 67.680003 
L 1285.572414 67.68 
L 1329.348414 67.680003 
z
" style="fill:#e377c2;"/>
   </g>
   <g id="patch_63">
    <path d="M 1329.348414 67.680003 
C 1329.348414 67.680003 1329.348414 67.680003 1329.348414 67.680003 
L 1285.572414 67.68 
L 1329.348414 67.680003 
z
" style="fill:#b5bd61;"/>
   </g>
   <g id="patch_64">
    <path d="M 1329.348414 67.680003 
C 1329.348414 67.680003 1329.348414 67.680003 1329.348414 67.680003 
L 1285.572414 67.68 
L 1329.348414 67.680003 
z
" style="fill:#0b7510;"/>
   </g>
   <g id="patch_65">
    <path d="M 1329.348414 67.680003 
C 1329.348414 67.680003 1329.348414 67.680003 1329.348414 67.680003 
L 1285.572414 67.68 
L 1329.348414 67.680003 
z
" style="fill:#750b0b;"/>
   </g>
   <g id="patch_66">
    <path d="M 1329.348414 67.680003 
C 1329.348414 67.680003 1329.348414 67.680003 1329.348414 67.680003 
L 1285.572414 67.68 
L 1329.348414 67.680003 
z
" style="fill:#dbdb8d;"/>
   </g>
   <g id="matplotlib.axis_9"/>
   <g id="matplotlib.axis_10"/>
   <g id="text_5">
    <!-- Cluster 15 -->
    <defs>
     <path d="M 4.15625 18.75 
L 13.375 19.53125 
Q 14.40625 12.796875 18.140625 9.390625 
Q 21.875 6 27.15625 6 
Q 33.5 6 37.890625 10.78125 
Q 42.28125 15.578125 42.28125 23.484375 
Q 42.28125 31 38.0625 35.34375 
Q 33.84375 39.703125 27 39.703125 
Q 22.75 39.703125 19.328125 37.765625 
Q 15.921875 35.84375 13.96875 32.765625 
L 5.71875 33.84375 
L 12.640625 70.609375 
L 48.25 70.609375 
L 48.25 62.203125 
L 19.671875 62.203125 
L 15.828125 42.96875 
Q 22.265625 47.46875 29.34375 47.46875 
Q 38.71875 47.46875 45.15625 40.96875 
Q 51.609375 34.46875 51.609375 24.265625 
Q 51.609375 14.546875 45.953125 7.46875 
Q 39.0625 -1.21875 27.15625 -1.21875 
Q 17.390625 -1.21875 11.203125 4.25 
Q 5.03125 9.71875 4.15625 18.75 
z
" id="ArialMT-53"/>
    </defs>
    <g transform="translate(1253.671008 6.96)scale(0.14 -0.14)">
     <use xlink:href="#ArialMT-67"/>
     <use x="72.216797" xlink:href="#ArialMT-108"/>
     <use x="94.433594" xlink:href="#ArialMT-117"/>
     <use x="150.048828" xlink:href="#ArialMT-115"/>
     <use x="200.048828" xlink:href="#ArialMT-116"/>
     <use x="227.832031" xlink:href="#ArialMT-101"/>
     <use x="283.447266" xlink:href="#ArialMT-114"/>
     <use x="316.748047" xlink:href="#ArialMT-32"/>
     <use x="344.53125" xlink:href="#ArialMT-49"/>
     <use x="400.146484" xlink:href="#ArialMT-53"/>
    </g>
   </g>
  </g>
 </g>
</svg>
